<?xml version="1.0" encoding="utf-8"?>
<!-- Generator: Adobe Illustrator 24.0.2, SVG Export Plug-In . SVG Version: 6.00 Build 0)  -->
<svg version="1.1" id="Layer_1" xmlns="http://www.w3.org/2000/svg" xmlns:xlink="http://www.w3.org/1999/xlink" x="0px" y="0px"
	 viewBox="0 0 171 24" style="enable-background:new 0 0 171 24;" xml:space="preserve">
<style type="text/css">
	.st0{fill:#99B998;}
	.st1{fill:#303030;}
</style>
<path class="st0" d="M32.7,2.6c-2.8-2.8-7.3-2.8-10.1,0c-2.8-2.8-7.3-2.8-10.1,0c-2.8,2.8-2.9,7.4,0,10.1c2.6,2.4,7.8,6.6,10.1,10.1
	c2.3-3.4,7.5-7.7,10.1-10.1C35.6,10,35.5,5.3,32.7,2.6z"/>
<path class="st1" d="M48.3,19.5c0.7,0,1.3-0.1,1.8-0.3c0.5-0.2,0.9-0.4,1.1-0.7c0.3-0.3,0.5-0.6,0.6-1c0.1-0.4,0.2-0.8,0.2-1.2
	c0-0.4-0.1-0.9-0.2-1.2c-0.1-0.4-0.3-0.7-0.6-0.9c-0.3-0.3-0.7-0.4-1.2-0.6c-0.5-0.1-1-0.2-1.7-0.2h-3.9v6.1H48.3z M44.4,4.3v6h3
	c0.6,0,1.2-0.1,1.7-0.2c0.5-0.1,0.9-0.3,1.3-0.5s0.6-0.5,0.8-0.9c0.2-0.4,0.3-0.9,0.3-1.4c0-0.6-0.1-1-0.2-1.4
	C51,5.5,50.8,5.2,50.5,5c-0.3-0.2-0.7-0.4-1.2-0.5c-0.5-0.1-1-0.2-1.7-0.2H44.4z M47.7,0.8c1.5,0,2.8,0.1,3.8,0.4
	c1.1,0.3,1.9,0.7,2.6,1.2c0.7,0.5,1.2,1.1,1.5,1.9C55.8,5,56,5.9,56,6.8c0,0.5-0.1,1-0.2,1.5c-0.1,0.5-0.4,0.9-0.7,1.3
	c-0.3,0.4-0.7,0.8-1.2,1.1c-0.5,0.3-1.1,0.6-1.7,0.9c1.5,0.4,2.6,0.9,3.3,1.7c0.7,0.8,1.1,1.8,1.1,3.1c0,0.9-0.2,1.8-0.6,2.6
	c-0.4,0.8-0.9,1.5-1.6,2.1c-0.7,0.6-1.5,1.1-2.6,1.4c-1,0.3-2.2,0.5-3.5,0.5h-8.6V0.8H47.7z"/>
<path class="st1" d="M81.5,11.9c0,1.6-0.3,3.1-0.8,4.5c-0.5,1.4-1.3,2.6-2.3,3.6c-1,1-2.2,1.8-3.6,2.4c-1.4,0.6-2.9,0.9-4.6,0.9
	s-3.2-0.3-4.6-0.9c-1.4-0.6-2.6-1.4-3.6-2.4c-1-1-1.8-2.2-2.3-3.6c-0.5-1.4-0.8-2.9-0.8-4.5s0.3-3.1,0.8-4.5
	c0.6-1.4,1.3-2.6,2.3-3.6c1-1,2.2-1.8,3.6-2.4c1.4-0.6,2.9-0.9,4.6-0.9s3.2,0.3,4.6,0.9c1.4,0.6,2.6,1.4,3.6,2.4
	c1,1,1.8,2.2,2.3,3.6C81.2,8.8,81.5,10.3,81.5,11.9z M76.8,11.9c0-1.2-0.2-2.2-0.5-3.1C76,7.9,75.6,7.1,75,6.4
	c-0.6-0.7-1.3-1.1-2.1-1.5c-0.8-0.3-1.7-0.5-2.8-0.5s-2,0.2-2.8,0.5c-0.8,0.3-1.5,0.8-2.1,1.5c-0.6,0.6-1,1.4-1.3,2.4
	c-0.3,0.9-0.5,2-0.5,3.1c0,1.2,0.2,2.2,0.5,3.1c0.3,0.9,0.7,1.7,1.3,2.3c0.6,0.6,1.3,1.1,2.1,1.5c0.8,0.3,1.8,0.5,2.8,0.5
	s2-0.2,2.8-0.5c0.8-0.3,1.5-0.8,2.1-1.5c0.6-0.6,1-1.4,1.3-2.3C76.7,14.1,76.8,13.1,76.8,11.9z"/>
<path class="st1" d="M109.3,0.8V23h-4V9.4c0-0.3,0-0.6,0-0.9c0-0.3,0.1-0.7,0.1-1l-6.3,12c-0.3,0.7-0.9,1-1.6,1h-0.6
	c-0.4,0-0.7-0.1-0.9-0.2c-0.3-0.2-0.5-0.4-0.7-0.7L88.8,7.4c0,0.4,0.1,0.7,0.1,1c0,0.3,0,0.6,0,0.9V23h-4V0.8h3.5c0.2,0,0.4,0,0.5,0
	c0.2,0,0.3,0,0.4,0.1c0.1,0,0.2,0.1,0.3,0.2c0.1,0.1,0.2,0.2,0.3,0.4l6.2,11.8c0.2,0.4,0.4,0.7,0.5,1.1c0.2,0.4,0.3,0.8,0.5,1.2
	c0.2-0.4,0.3-0.8,0.5-1.2c0.2-0.4,0.4-0.8,0.6-1.1l6.2-11.8c0.1-0.2,0.2-0.3,0.3-0.4c0.1-0.1,0.2-0.2,0.3-0.2
	c0.1-0.1,0.3-0.1,0.4-0.1c0.2,0,0.3,0,0.5,0H109.3z"/>
<path class="st1" d="M122.4,19.5c0.7,0,1.3-0.1,1.8-0.3c0.5-0.2,0.9-0.4,1.1-0.7c0.3-0.3,0.5-0.6,0.6-1c0.1-0.4,0.2-0.8,0.2-1.2
	c0-0.4-0.1-0.9-0.2-1.2c-0.1-0.4-0.3-0.7-0.6-0.9c-0.3-0.3-0.7-0.4-1.2-0.6c-0.5-0.1-1-0.2-1.7-0.2h-3.9v6.1H122.4z M118.5,4.3v6h3
	c0.6,0,1.2-0.1,1.7-0.2c0.5-0.1,0.9-0.3,1.3-0.5c0.3-0.2,0.6-0.5,0.8-0.9c0.2-0.4,0.3-0.9,0.3-1.4c0-0.6-0.1-1-0.2-1.4
	c-0.1-0.4-0.4-0.7-0.7-0.9c-0.3-0.2-0.7-0.4-1.2-0.5c-0.5-0.1-1-0.2-1.7-0.2H118.5z M121.8,0.8c1.5,0,2.8,0.1,3.8,0.4
	c1.1,0.3,1.9,0.7,2.6,1.2c0.7,0.5,1.2,1.1,1.5,1.9c0.3,0.7,0.5,1.6,0.5,2.5c0,0.5-0.1,1-0.2,1.5c-0.1,0.5-0.4,0.9-0.7,1.3
	c-0.3,0.4-0.7,0.8-1.2,1.1c-0.5,0.3-1.1,0.6-1.7,0.9c1.5,0.4,2.6,0.9,3.3,1.7c0.7,0.8,1.1,1.8,1.1,3.1c0,0.9-0.2,1.8-0.6,2.6
	c-0.4,0.8-0.9,1.5-1.6,2.1c-0.7,0.6-1.5,1.1-2.6,1.4c-1,0.3-2.2,0.5-3.5,0.5h-8.6V0.8H121.8z"/>
<path class="st1" d="M145.5,14.6l-2.4-6.8c-0.1-0.4-0.3-0.8-0.5-1.3c-0.2-0.5-0.3-1-0.4-1.6c-0.1,0.6-0.3,1.1-0.5,1.6
	c-0.2,0.5-0.3,0.9-0.4,1.3l-2.4,6.8H145.5z M153.2,23h-3.6c-0.4,0-0.7-0.1-1-0.3c-0.2-0.2-0.4-0.4-0.6-0.7l-1.5-4.2h-8.8l-1.5,4.2
	c-0.1,0.3-0.3,0.5-0.5,0.7c-0.3,0.2-0.6,0.3-1,0.3h-3.6l8.7-22.2h4.7L153.2,23z"/>
<path class="st1" d="M162.9,14.5V23h-4.6v-8.5l-8.1-13.6h4c0.4,0,0.7,0.1,0.9,0.3c0.2,0.2,0.4,0.4,0.6,0.7l3.6,7
	c0.2,0.5,0.5,0.9,0.7,1.3c0.2,0.4,0.4,0.8,0.5,1.2c0.1-0.4,0.3-0.8,0.5-1.2c0.2-0.4,0.4-0.9,0.6-1.3l3.6-7c0.1-0.2,0.3-0.5,0.6-0.7
	c0.2-0.2,0.6-0.3,0.9-0.3h4.1L162.9,14.5z"/>
<path class="st1" d="M5.3,7.4v16.1h-5V7.4H5.3z M0,3.2c0-0.7,0.3-1.3,0.8-1.8C1.3,1,2,0.8,2.8,0.8s1.5,0.2,2,0.7
	c0.5,0.5,0.8,1,0.8,1.8c0,0.7-0.3,1.3-0.8,1.8c-0.5,0.5-1.2,0.7-2,0.7S1.3,5.4,0.8,5C0.3,4.5,0,3.9,0,3.2z"/>
</svg>
