<?xml version="1.0" encoding="utf-8"?>
<!-- Generator: Adobe Illustrator 24.0.2, SVG Export Plug-In . SVG Version: 6.00 Build 0)  -->
<svg version="1.1" id="_x32_" xmlns="http://www.w3.org/2000/svg" xmlns:xlink="http://www.w3.org/1999/xlink" x="0px" y="0px"
	 viewBox="0 0 800 402.5" style="enable-background:new 0 0 800 402.5;" xml:space="preserve">
<style type="text/css">
	.st0{fill:#FFFFFF;}
</style>
<g>
	<path class="st0" d="M784.3,123.1c-15.3-36-40.6-66.5-72.6-88.1c-15.9-10.7-33.5-19.3-52.4-25.1c-18.8-6-38.8-9.1-59.5-9.1
		c-26.5,0-52,5.2-75.3,14.6c-1.9,0.8-3.8,1.5-5.6,2.4c-21,9.2-40.1,22.1-56.5,37.5c-5.3,5-10.3,10.3-15.4,16.3
		c-8.9,10.2-18.1,22-27,33.9c-1.8,2.4-3.8,5-5.6,7.5c-4.9,6.7-51.9,75.6-60.2,87.9c-4.1,6.2-9.1,13.2-14.4,20.8
		c-1.2,1.7-2.4,3.5-3.7,5.3c-8.8,12.5-18.6,25.8-27.7,37.4c-4.5,5.8-9.1,11.2-12.9,15.8c-4,4.7-7.6,8.4-10.2,10.9
		c-11.1,10.5-24.2,19-38.5,24.8c-14.4,5.8-30,9.1-46.6,9.1c-11.4,0-22.4-1.6-32.7-4.4c-5.3-1.4-10.5-3.2-15.5-5.4
		c-22.3-9.3-41.3-25.1-54.6-44.9c-6.7-10-12-20.8-15.7-32.5c-3.5-11.6-5.6-23.9-5.6-36.9c0-17.2,3.5-33.4,9.7-48.3
		c9.5-22.3,25.2-41.1,45-54.6c10-6.7,20.8-11.9,32.5-15.5c11.6-3.6,23.9-5.7,36.9-5.7c16.6,0.1,32.2,3.2,46.6,9
		c14.4,5.9,27.4,14.4,38.5,24.8c2.6,2.5,6.2,6.3,10.2,10.9c7,8.2,15.3,18.6,23.6,29.6c3.2,4.4,6.5,8.8,9.7,13.3
		c12.4-18.1,34.2-49.9,45.5-66.4c-1.9-2.6-3.9-5.2-5.8-7.8c-5.2-6.6-10.4-12.9-15.5-18.8c-5.2-6-10.1-11.3-15.4-16.3
		c-17.9-16.8-38.9-30.5-62.1-40C252.2,6,226.7,0.8,200.2,0.8c-27.6,0-54,5.6-78,15.8c-36,15.1-66.4,40.5-88,72.5
		C23.4,105,14.9,122.7,8.9,141.5C3.1,160.3,0,180.3,0,201c0,27.6,5.6,54,15.7,77.9C30.9,315,56.3,345.4,88.1,367
		c16,10.7,33.6,19.3,52.5,25.2c18.8,5.8,38.8,8.9,59.5,8.9c26.5,0,52-5.2,75.3-14.6c23.2-9.5,44.1-23.2,62-39.9l0.1-0.1
		c5.3-4.9,10.2-10.4,15.4-16.3c8.9-10.2,18.1-22,27-33.9c1.8-2.5,3.8-4.9,5.6-7.4c4.9-6.9,69.2-101.2,74.5-108.8
		c1.2-1.7,2.5-3.5,3.8-5.3c8.8-12.4,18.6-25.7,27.7-37.4c4.5-5.8,9.1-11.3,12.9-15.8c4-4.7,7.6-8.4,10.2-10.9
		c11.1-10.5,24.2-18.9,38.6-24.8c3.5-1.4,7-2.6,10.6-3.8c11.4-3.4,23.4-5.2,36-5.3c17.2,0.1,33.5,3.5,48.3,9.8
		c22.3,9.3,41.3,25.1,54.6,44.9c6.7,10,12,20.8,15.7,32.5c3.6,11.6,5.6,23.9,5.6,36.9c0,17.2-3.5,33.5-9.7,48.3
		c-9.5,22.3-25.2,41.3-45,54.6c-10,6.7-20.8,12-32.5,15.5c-11.5,3.6-23.9,5.7-36.9,5.7c-16.6,0-32.2-3.2-46.6-9.1
		c-14.4-5.8-27.4-14.4-38.6-24.8c-2.6-2.5-6.2-6.3-10.2-10.9c-7-8-15.3-18.6-23.6-29.6c-3.4-4.4-6.6-8.9-9.8-13.5
		c-1,1.6-2.1,3.1-3.2,4.8c-21.4,31.3-34.8,51.1-42.2,61.8c1.9,2.6,3.9,5.1,5.8,7.6c5.2,6.6,10.4,12.9,15.5,18.8
		c5.1,6,10.1,11.4,15.4,16.3c17.9,16.8,38.9,30.5,62.1,40c23.3,9.4,48.8,14.6,75.3,14.6c27.6,0,54-5.6,77.9-15.7
		c36.1-15.3,66.5-40.6,88.1-72.6c10.7-15.9,19.4-33.5,25.2-52.4c5.8-18.8,8.9-38.8,8.9-59.5C800,173.4,794.4,147,784.3,123.1z"/>
</g>
</svg>
